<?xml version="1.0" encoding="UTF-8"?><svg xmlns="http://www.w3.org/2000/svg" viewBox="0 0 67.27 63.44"><defs><style>.d{font-family:MyriadPro-Bold, Myriad Pro;font-size:12px;}.e{fill:#fff;stroke:#9dc10a;stroke-width:6px;}.e,.f{stroke-miterlimit:10;}.f{fill:#bef202;stroke:#a5bc1e;stroke-width:3px;}.g{fill:#1b6828;}.h{fill:#ff0;}</style></defs><g id="a"/><g id="b"><g id="c"><path class="g" d="M31.5,59.89s-7.37-1.04,5.03-8.85,15.13-6.27,15.13-6.27"/><path class="g" d="M31.81,61.26s-1.04,7.37-8.85-5.03-6.27-15.13-6.27-15.13"/><line class="e" x1="28.75" y1="61.69" x2="29.91" y2="37.97"/><path class="f" d="M21.82,37.18l-15.6-2.47c-3.21-.51-5.32-3.64-4.58-6.81L6.8,5.83c.67-2.86,3.44-4.72,6.34-4.26l47.91,7.65c3.23,.52,5.33,3.68,4.56,6.85l-5.03,20.74c-.67,2.76-3.29,4.58-6.11,4.24l-32.65-3.88Z"/><path class="h" d="M19.03,24.49l12.67-14.18c1.75-1.95,4.95-1.31,5.81,1.16l6.07,17.4c.86,2.47-1.25,4.97-3.83,4.52l-18.75-3.22c-2.66-.46-3.78-3.67-1.98-5.68Z"/><text class="d" transform="translate(29.84 25.52) rotate(9.28)"><tspan x="0" y="0">!</tspan></text></g></g></svg>