<?xml version="1.0" encoding="UTF-8"?><svg xmlns="http://www.w3.org/2000/svg" viewBox="0 0 100.06 71.24"><defs><style>.d{stroke-width:5px;}.d,.e,.f,.g,.h,.i,.j,.k{stroke:#000;stroke-miterlimit:10;}.e,.l{fill:#232323;}.e,.i{stroke-width:9px;}.m,.g{fill:#fff;}.f{fill:#88c425;}.n{opacity:.28;}.g,.h{stroke-width:.25px;}.h{fill:#090a09;}.j{fill:#2d2d2d;}.o{opacity:.16;}.p{fill:#ea2840;}.q{opacity:.37;}.k{fill:#519548;}</style></defs><g id="a"/><g id="b"><g id="c"><g><g><path class="f" d="M70.92,10.42s6.61-8.42,7.1-7.6,3.72,8.32,3.72,8.32c0,0,6.52-6.5,7.68-5.84s0,11.33,0,11.33c-2.21-.69,3.82-1.55,9.91-.63,1.63,.25-5.78,13.24-5.78,13.24l-22.62-18.83Z"/><g><polygon class="j" points="21.38 68.71 28.93 61.39 42.28 52.77 64.64 34.28 81.73 19.34 70.74 49 57.8 55.9 33.16 65.19 23.52 68.11 21.38 68.71"/><path class="g" d="M33.59,59.47s-.91,.19,.75-2.75c1.65-2.94,1.39,1.37,1.39,1.37l-2.13,1.37Z"/><path class="g" d="M37.31,58.46s-.91,.19,.75-2.75,1.39,1.37,1.39,1.37l-2.13,1.37Z"/><path class="g" d="M40.59,58.05s-.91,.19,.75-2.75,1.39,1.37,1.39,1.37l-2.13,1.37Z"/><path class="g" d="M44.44,56.95s-.91,.19,.75-2.75c1.65-2.94,1.39,1.37,1.39,1.37l-2.13,1.37Z"/><path class="g" d="M48.64,55.87s-.91,.19,.75-2.75,1.39,1.37,1.39,1.37l-2.13,1.37Z"/><path class="p" d="M71.44,32.35s-17.67,14.04-17.23,14.81,11.01-.7,11.01-.7"/><path class="q" d="M63.48,37.33s-7.38,13.4-8.7,15.44,12.39-.66,12.39-.66l8.42-13.06,4.79-13.27-8.2-1.05-9.25,9.8,.55,2.8Z"/><path class="k" d="M49.2,18.11c-.88-.22-26.86,22.02-29.94,22.9s-10.13,1.76-13.65,3.08S.19,49.11,.54,51.14c.35,2.03,3.96,3.96,5.06,4.4s10.62,.39,12.55,0l11.01-2.2s10.79-5.06,12.55-5.94,17.17-8.81,17.17-8.81l9.25-3.95,8.59-7.71-17.45,19.73-9.96,8.45-13.74,3.35-12.35,5.45s-4.12,2.78-1.84,4.8,8.45,2.03,8.45,2.03l14.36-5.19s38.49-21.48,50.58-18.88c6.18,1.33-1.89-11.57-1.89-11.57l2.96-10.03s-6.14-11.43-9.2-13.55-.39-1-2.64-2.2-15.41-2.2-15.41-2.2c0,0-4.84-1.1-6.17,0s-8.21,8.9-8.21,8.9c0,0-4.74,1.74-6.11,2.77"/><path d="M61.31,16.72s.87-6.65,8.22-6.96c5.99-.25,1.25,4.77-.7,6.64-.46,.44-1.07,.66-1.7,.63l-5.82-.31Z"/></g><polygon class="o" points="77.8 25.47 60.51 46.27 70.17 40.36 78.76 24.34 58.34 38.44 67.78 34.36 77.8 25.47"/></g><ellipse class="h" cx="51.05" cy="25.72" rx=".16" ry=".33"/><g class="n"><path class="h" d="M25.12,46.27c0-.54-.65,.76-1.46,.76s-1.46-.34-1.46-.76,.65-.76,1.46-.76,1.46,.34,1.46,.76Z"/><circle class="h" cx="28.87" cy="43.49" r="1.83"/><circle class="h" cx="35.57" cy="40.63" r=".27"/><ellipse class="h" cx="40.84" cy="36.47" rx="1.28" ry=".92"/><ellipse class="h" cx="36.95" cy="33.62" rx=".88" ry=".47"/><ellipse class="h" cx="39.27" cy="41.46" rx=".29" ry=".56"/><circle class="h" cx="46.25" cy="36" r=".44"/><circle class="h" cx="53.45" cy="31.6" r=".76"/><ellipse class="h" cx="52.35" cy="24.73" rx="1.86" ry="1.32"/><circle class="h" cx="59.91" cy="22.09" r="1.32"/><ellipse class="h" cx="65.85" cy="22.75" rx=".22" ry=".66"/><ellipse class="h" cx="80.6" cy="38.49" rx=".5" ry="1.1"/><ellipse class="h" cx="73.91" cy="45.68" rx="1.24" ry=".99"/><path class="h" d="M84.05,36.24c0,.13-.11,.24-.24,.24s-.24-.11-.24-.24,.11-.6,.24-.6,.24,.46,.24,.6Z"/><ellipse class="h" cx="84.43" cy="27.43" rx="1.35" ry=".94"/><ellipse class="h" cx="81.7" cy="18.07" rx="1.21" ry=".55"/><ellipse class="h" cx="82.5" cy="14.66" rx="2.39" ry=".99"/><circle class="h" cx="57.84" cy="14.02" r=".63"/><ellipse class="h" cx="61.34" cy="52.28" rx=".74" ry="1.56"/><ellipse class="h" cx="53.52" cy="59" rx=".69" ry="1.54"/><path class="h" d="M50.05,61.01c0-.74-.26,.39-.58,.39s-.58-.17-.58-.39,.26-.39,.58-.39,.58,.17,.58,.39Z"/><ellipse class="h" cx="41.64" cy="63.98" rx="1.2" ry=".85"/><circle class="h" cx="35.7" cy="62.59" r=".78"/><path class="h" d="M32,66.01c0-.38-.14,1.05-.3,1.05s-.3-.47-.3-1.05,.14-1.05,.3-1.05,.3,.47,.3,1.05Z"/><ellipse class="h" cx="25.86" cy="64.97" rx=".74" ry=".58"/><path class="h" d="M35.3,66.54c0,.29-.15,.17-.33,.17s-.33,.12-.33-.17,.15-.52,.33-.52,.33,.23,.33,.52Z"/><ellipse class="h" cx="42.12" cy="60.12" rx="1.27" ry=".52"/><ellipse class="h" cx="66.36" cy="47.71" rx="1.79" ry="1.05"/><ellipse class="h" cx="75.54" cy="40.64" rx=".39" ry="1.71"/><path class="h" d="M90.73,32.35c0,.76-.43,1.73-.96,1.73s-.96-.62-.96-1.38,.43-1.38,.96-1.38,.96,.26,.96,1.02Z"/><ellipse class="h" cx="92.19" cy="24.7" rx=".69" ry=".36"/></g><path class="m" d="M64.85,15.33s.05,.41,1.45,0,2.04-.5,1.25,.18-2.86,.81-2.69-.18Z"/><ellipse class="m" cx="66.36" cy="14.08" rx=".5" ry=".57"/></g><path class="e" d="M62.3,18s1.15,1.2,4.2,.47,4.96-5.75,4.96-5.75c0,0-4.81-2.58-6.5-2.03s-2.66,7.31-2.66,7.31Z"/><path class="i" d="M51.21,15.13s-1.65,.18-3.52-2.33-.11-7.59-.11-7.59c0,0,5.35,1.1,6.29,2.61s-2.65,7.32-2.65,7.32Z"/><line class="d" x1="60.38" y1="13.07" x2="50.24" y2="10.87"/><path class="l" d="M60.89,19.59s4.89-.8,8.96-3.75,5.03-4.96,5.03-4.96l-4.67,10.32s-5.33,2.52-9.33-1.61Z"/><path class="l" d="M45.5,13.74s3.85,.22,7.45-1.34,4.67-2.93,4.67-2.93l-5.29,7.06s-4.48,1.02-6.82-2.8Z"/></g></g></svg>