<svg xmlns="http://www.w3.org/2000/svg" viewBox="0 0 102.45 98.68"><defs><style>.d,.e{fill:#fff}.e,.h{stroke:#000;stroke-miterlimit:10;stroke-width:.25px}.h{fill:#090a09}</style></defs><g id="b"><g id="c"><path style="stroke-width:.25px;stroke:#000;stroke-miterlimit:10;fill:#bef202" d="m98.8 82.92-33.44-7.69-25.3 23.19-3.02-34.19L7.17 47.34 38.75 33.9 45.58.27l22.54 25.89 34.1-3.9L84.56 51.7 98.8 82.92z"/><path d="M70.92 27.05s6.61-8.42 7.1-7.6 3.72 8.32 3.72 8.32 6.52-6.5 7.68-5.84 0 11.33 0 11.33 6.78-.63 9.91-.63c1.65 0-5.78 13.24-5.78 13.24L70.93 27.04Z" style="fill:#ef3ca2;stroke:#000;stroke-miterlimit:10"/><path style="fill:#4f4f4f;stroke:#000;stroke-miterlimit:10" d="m32.64 91.4 10.2-12.18 27.33-38.24 8.59-5L93 42.02 78.03 61.19l-9.48 8.48-24.13 18.21-9.63 2.92-2.15.6z"/><path class="e" d="M34.35 89.09s-.91.19.75-2.75 1.39 1.37 1.39 1.37l-2.13 1.37ZM38.32 87.47s-.91.19.75-2.75 1.39 1.37 1.39 1.37l-2.13 1.37ZM41.89 84.89s-.91.19.75-2.75 1.39 1.37 1.39 1.37l-2.13 1.37ZM45.3 82.66s-.91.19.75-2.75 1.39 1.37 1.39 1.37l-2.13 1.37ZM48.73 80.77s-.91.19.75-2.75 1.39 1.37 1.39 1.37l-2.13 1.37Z"/><path d="M71.44 54.44S53.77 68.48 54.21 69.25s11.01-.7 11.01-.7" style="fill:#ea2840"/><path d="M68.26 43.74c2.04.38-4.84 27.24-8.93 28.76-2.28.85 11.27-7.5 11.27-7.5l8.42-13.06 4.79-13.27-8.2-1.05-9.25 9.8 1.9-3.69Z" style="opacity:.37"/><path d="M49.2 34.75c-.88-.22-26.86 22.02-29.94 22.9S9.13 59.41 5.61 60.73.19 65.74.54 67.77s3.96 3.96 5.06 4.4 10.62.39 12.55 0l11.01-2.2s10.79-5.06 12.55-5.94 17.17-8.81 17.17-8.81l9.25-3.95 8.59-7.71-11.5 19.53-6.63 7.82-8.54 9.1-13.98 8.32s-11.31 3.92-9.03 5.94 7.87 0 7.87 0l15.58-5.42 34.4-28.2 7.98-8.93 1.24-18.92s-4.43-2.55-7.49-4.67-.39-1-2.64-2.2-15.41-2.2-15.41-2.2-4.84-1.1-6.17 0-11.23 5.5-11.23 5.5-1.72 5.14-3.08 6.16" style="fill:#519548;stroke:#000;stroke-miterlimit:10"/><path d="M61.31 33.35s.87-6.65 8.22-6.96c5.99-.25 1.25 4.77-.7 6.64-.46.44-1.07.66-1.7.63l-5.82-.31Z"/><path style="opacity:.16" d="M77.8 42.11 60.51 62.9l9.66-5.9 8.59-16.02-20.42 14.09L67.78 51l10.02-8.89z"/><ellipse class="h" cx="51.05" cy="42.35" rx=".16" ry=".33"/><g style="opacity:.28"><path class="h" d="M25.12 62.9c0-.54-.65.76-1.46.76s-1.46-.34-1.46-.76.65-.76 1.46-.76 1.46.34 1.46.76Z"/><circle class="h" cx="28.87" cy="60.12" r="1.83"/><circle class="h" cx="35.57" cy="57.27" r=".27"/><ellipse class="h" cx="40.84" cy="53.11" rx="1.28" ry=".92"/><ellipse class="h" cx="36.95" cy="50.25" rx=".88" ry=".47"/><ellipse class="h" cx="39.27" cy="58.09" rx=".29" ry=".56"/><circle class="h" cx="46.25" cy="52.63" r=".44"/><circle class="h" cx="53.45" cy="48.23" r=".76"/><ellipse class="h" cx="52.35" cy="41.36" rx="1.86" ry="1.32"/><circle class="h" cx="59.91" cy="38.72" r="1.32"/><ellipse class="h" cx="65.85" cy="39.38" rx=".22" ry=".66"/><ellipse class="h" cx="80.6" cy="55.13" rx=".5" ry="1.1"/><ellipse class="h" cx="73.91" cy="62.31" rx="1.24" ry=".99"/><path class="h" d="M84.05 52.87c0 .13-.11.24-.24.24s-.24-.11-.24-.24.11-.6.24-.6.24.46.24.6Z"/><ellipse class="h" cx="84.43" cy="44.06" rx="1.35" ry=".94"/><ellipse class="h" cx="81.7" cy="34.7" rx="1.21" ry=".55"/><ellipse class="h" cx="82.5" cy="31.29" rx="2.39" ry=".99"/><circle class="h" cx="57.84" cy="30.66" r=".63"/><ellipse class="h" cx="62.08" cy="72.89" rx=".74" ry="1.56"/><ellipse class="h" cx="53.52" cy="75.63" rx=".69" ry="1.54"/><path class="h" d="M50.05 77.64c0-.74-.26.39-.58.39s-.58-.17-.58-.39.26-.39.58-.39.58.17.58.39Z"/><ellipse class="h" cx="70.17" cy="69.67" rx="1.07" ry=".59"/><ellipse class="h" cx="80.11" cy="61.19" rx=".39" ry="1.71"/><path class="h" d="M90.73 48.99c0 .76-.43 1.73-.96 1.73s-.96-.62-.96-1.38.43-1.38.96-1.38.96.26.96 1.02ZM89.77 34.15c0 .2 2.8 7.54 2.42 7.54s-.69-.16-.69-.36.31-.36.69-.36-2.42-7.02-2.42-6.83Z"/></g><path class="d" d="M64.85 31.96s.05.41 1.45 0 2.04-.5 1.25.18-2.86.81-2.69-.18Z"/><ellipse class="d" cx="66.36" cy="30.72" rx=".5" ry=".57"/></g></g></svg>