<?xml version="1.0" encoding="UTF-8"?><svg xmlns="http://www.w3.org/2000/svg" viewBox="0 0 100.06 68.97"><defs><style>.d,.e,.f{fill:#fff;}.g{fill:#88c425;}.g,.e,.h,.i,.f,.j,.k{stroke-miterlimit:10;}.g,.e,.h,.i,.k{stroke:#000;}.l{opacity:.28;}.e,.h{stroke-width:.25px;}.h{fill:#090a09;}.i{fill:#2d2d2d;}.m{opacity:.16;}.n{fill:#ea2840;}.f{stroke:#bef202;stroke-width:6px;}.j{fill:#7ce8e8;stroke:#6ae4ea;stroke-width:4px;}.o{opacity:.37;}.k{fill:#519548;}</style></defs><g id="a"/><g id="b"><g id="c"><g><g><path class="g" d="M70.92,8.15S77.52-.27,78.02,.56s3.72,8.32,3.72,8.32c0,0,6.52-6.5,7.68-5.84s0,11.33,0,11.33c-2.21-.69,3.82-1.55,9.91-.63,1.63,.25-5.78,13.24-5.78,13.24l-22.62-18.83Z"/><g><polygon class="i" points="21.38 66.45 28.93 59.13 42.28 50.5 64.64 32.02 81.73 17.07 70.74 46.74 57.8 53.63 33.16 62.93 23.52 65.85 21.38 66.45"/><path class="e" d="M33.59,57.21s-.91,.19,.75-2.75c1.65-2.94,1.39,1.37,1.39,1.37l-2.13,1.37Z"/><path class="e" d="M37.31,56.2s-.91,.19,.75-2.75,1.39,1.37,1.39,1.37l-2.13,1.37Z"/><path class="e" d="M40.59,55.78s-.91,.19,.75-2.75,1.39,1.37,1.39,1.37l-2.13,1.37Z"/><path class="e" d="M44.44,54.68s-.91,.19,.75-2.75c1.65-2.94,1.39,1.37,1.39,1.37l-2.13,1.37Z"/><path class="e" d="M48.64,53.61s-.91,.19,.75-2.75,1.39,1.37,1.39,1.37l-2.13,1.37Z"/><path class="n" d="M71.44,30.09s-17.67,14.04-17.23,14.81,11.01-.7,11.01-.7"/><path class="o" d="M63.48,35.06s-7.38,13.4-8.7,15.44,12.39-.66,12.39-.66l8.42-13.06,4.79-13.27-8.2-1.05-9.25,9.8,.55,2.8Z"/><path class="k" d="M49.2,15.85c-.88-.22-26.86,22.02-29.94,22.9s-10.13,1.76-13.65,3.08S.19,46.84,.54,48.88c.35,2.03,3.96,3.96,5.06,4.4s10.62,.39,12.55,0l11.01-2.2s10.79-5.06,12.55-5.94,17.17-8.81,17.17-8.81l9.25-3.95,8.59-7.71-17.45,19.73-9.96,8.45-13.74,3.35-12.35,5.45s-4.12,2.78-1.84,4.8,8.45,2.03,8.45,2.03l14.36-5.19s38.49-21.48,50.58-18.88c6.18,1.33-1.89-11.57-1.89-11.57l2.96-10.03s-6.14-11.43-9.2-13.55-.39-1-2.64-2.2-15.41-2.2-15.41-2.2c0,0-4.84-1.1-6.17,0s-8.21,8.9-8.21,8.9c0,0-4.74,1.74-6.11,2.77"/><path d="M61.31,14.45s.87-6.65,8.22-6.96c5.99-.25,1.25,4.77-.7,6.64-.46,.44-1.07,.66-1.7,.63l-5.82-.31Z"/></g><polygon class="m" points="77.8 23.21 60.51 44 70.17 38.1 78.76 22.08 58.34 36.17 67.78 32.1 77.8 23.21"/></g><ellipse class="h" cx="51.05" cy="23.46" rx=".16" ry=".33"/><g class="l"><path class="h" d="M25.12,44c0-.54-.65,.76-1.46,.76s-1.46-.34-1.46-.76,.65-.76,1.46-.76,1.46,.34,1.46,.76Z"/><circle class="h" cx="28.87" cy="41.22" r="1.83"/><circle class="h" cx="35.57" cy="38.37" r=".27"/><ellipse class="h" cx="40.84" cy="34.21" rx="1.28" ry=".92"/><ellipse class="h" cx="36.95" cy="31.36" rx=".88" ry=".47"/><ellipse class="h" cx="39.27" cy="39.19" rx=".29" ry=".56"/><circle class="h" cx="46.25" cy="33.73" r=".44"/><circle class="h" cx="53.45" cy="29.33" r=".76"/><ellipse class="h" cx="52.35" cy="22.47" rx="1.86" ry="1.32"/><circle class="h" cx="59.91" cy="19.82" r="1.32"/><ellipse class="h" cx="65.85" cy="20.48" rx=".22" ry=".66"/><ellipse class="h" cx="80.6" cy="36.23" rx=".5" ry="1.1"/><ellipse class="h" cx="73.91" cy="43.41" rx="1.24" ry=".99"/><path class="h" d="M84.05,33.97c0,.13-.11,.24-.24,.24s-.24-.11-.24-.24,.11-.6,.24-.6,.24,.46,.24,.6Z"/><ellipse class="h" cx="84.43" cy="25.16" rx="1.35" ry=".94"/><ellipse class="h" cx="81.7" cy="15.8" rx="1.21" ry=".55"/><ellipse class="h" cx="82.5" cy="12.39" rx="2.39" ry=".99"/><circle class="h" cx="57.84" cy="11.76" r=".63"/><ellipse class="h" cx="61.34" cy="50.02" rx=".74" ry="1.56"/><ellipse class="h" cx="53.52" cy="56.73" rx=".69" ry="1.54"/><path class="h" d="M50.05,58.74c0-.74-.26,.39-.58,.39s-.58-.17-.58-.39,.26-.39,.58-.39,.58,.17,.58,.39Z"/><ellipse class="h" cx="41.64" cy="61.71" rx="1.2" ry=".85"/><circle class="h" cx="35.7" cy="60.32" r=".78"/><path class="h" d="M32,63.75c0-.38-.14,1.05-.3,1.05s-.3-.47-.3-1.05,.14-1.05,.3-1.05,.3,.47,.3,1.05Z"/><ellipse class="h" cx="25.86" cy="62.7" rx=".74" ry=".58"/><path class="h" d="M35.3,64.27c0,.29-.15,.17-.33,.17s-.33,.12-.33-.17,.15-.52,.33-.52,.33,.23,.33,.52Z"/><ellipse class="h" cx="42.12" cy="57.86" rx="1.27" ry=".52"/><ellipse class="h" cx="66.36" cy="45.45" rx="1.79" ry="1.05"/><ellipse class="h" cx="75.54" cy="38.37" rx=".39" ry="1.71"/><path class="h" d="M90.73,30.09c0,.76-.43,1.73-.96,1.73s-.96-.62-.96-1.38,.43-1.38,.96-1.38,.96,.26,.96,1.02Z"/><ellipse class="h" cx="92.19" cy="22.44" rx=".69" ry=".36"/></g><path class="d" d="M64.85,13.07s.05,.41,1.45,0,2.04-.5,1.25,.18-2.86,.81-2.69-.18Z"/><ellipse class="d" cx="66.36" cy="11.82" rx=".5" ry=".57"/></g><g><line class="f" x1="61.81" y1="7.06" x2="71.91" y2="15.2"/><line class="f" x1="70.93" y1="6.07" x2="62.79" y2="16.18"/></g><path class="j" d="M82.59,11.57s-4.49,11.01,.05,11.01c3.44,0,.95-5.44-.05-11.01Z"/></g></g></svg>