<?xml version="1.0" encoding="UTF-8"?><svg xmlns="http://www.w3.org/2000/svg" viewBox="0 0 104.84 93.27"><defs><style>.d,.e{fill:#fff;}.f{fill:#88c425;}.f,.e,.g,.h,.i{stroke:#000;stroke-miterlimit:10;}.j{opacity:.28;}.e,.h{stroke-width:.25px;}.g{fill:#4f4f4f;}.h{fill:#090a09;}.k{opacity:.16;}.l{fill:#ea2840;}.m{opacity:.37;}.i{fill:#519548;}</style></defs><g id="a"/><g id="b"><g id="c"><g><circle class="h" cx="58.21" cy="46.63" r="46.51"/><g><path class="f" d="M70.92,21.96s6.61-8.42,7.1-7.6,3.72,8.32,3.72,8.32c0,0,6.52-6.5,7.68-5.84s0,11.33,0,11.33c0,0,6.78-.63,9.91-.63,1.65,0-5.78,13.24-5.78,13.24l-22.62-18.83Z"/><g><polygon class="g" points="21.38 80.25 24.51 73.15 47.96 59.61 64.64 45.82 81.73 30.87 70.74 60.54 57.8 67.44 33.16 76.73 23.52 79.65 21.38 80.25"/><path class="e" d="M33.59,71.01s-.91,.19,.75-2.75,1.39,1.37,1.39,1.37l-2.13,1.37Z"/><path class="e" d="M37.31,70s-.91,.19,.75-2.75,1.39,1.37,1.39,1.37l-2.13,1.37Z"/><path class="e" d="M40.59,69.59s-.91,.19,.75-2.75,1.39,1.37,1.39,1.37l-2.13,1.37Z"/><path class="e" d="M44.44,68.49s-.91,.19,.75-2.75,1.39,1.37,1.39,1.37l-2.13,1.37Z"/><path class="e" d="M48.64,67.41s-.91,.19,.75-2.75,1.39,1.37,1.39,1.37l-2.13,1.37Z"/><path class="l" d="M71.44,43.89s-17.67,14.04-17.23,14.81,11.01-.7,11.01-.7"/><path class="m" d="M63.48,48.87s-7.38,13.4-8.7,15.44,12.39-.66,12.39-.66l8.42-13.06,4.79-13.27-8.2-1.05-9.25,9.8,.55,2.8Z"/><path class="i" d="M49.2,29.65c-.88-.22-26.86,22.02-29.94,22.9s-10.13,1.76-13.65,3.08S.19,60.65,.54,62.68s3.96,3.96,5.06,4.4,10.62,.39,12.55,0l11.01-2.2s10.79-5.06,12.55-5.94,17.17-8.81,17.17-8.81l9.25-3.95,8.59-7.71-17.45,19.73-9.96,8.45-13.74,3.35-12.35,5.45s-4.12,2.78-1.84,4.8,8.45,2.03,8.45,2.03l14.36-5.19,40.71-21.52,7.98-8.93,1.24-18.92s-4.43-2.55-7.49-4.67-.39-1-2.64-2.2-15.41-2.2-15.41-2.2c0,0-4.84-1.1-6.17,0s-11.23,5.5-11.23,5.5c0,0-1.72,5.14-3.08,6.16"/><path d="M61.31,28.26s.87-6.65,8.22-6.96c5.99-.25,1.25,4.77-.7,6.64-.46,.44-1.07,.66-1.7,.63l-5.82-.31Z"/></g><polygon class="k" points="77.8 37.01 60.51 57.81 70.17 51.9 78.76 35.88 58.34 49.98 67.78 45.9 77.8 37.01"/></g><ellipse class="h" cx="51.05" cy="37.26" rx=".16" ry=".33"/><g class="j"><path class="h" d="M25.12,57.81c0-.54-.65,.76-1.46,.76s-1.46-.34-1.46-.76,.65-.76,1.46-.76,1.46,.34,1.46,.76Z"/><circle class="h" cx="28.87" cy="55.03" r="1.83"/><circle class="h" cx="35.57" cy="52.17" r=".27"/><ellipse class="h" cx="40.84" cy="48.01" rx="1.28" ry=".92"/><ellipse class="h" cx="36.95" cy="45.16" rx=".88" ry=".47"/><ellipse class="h" cx="39.27" cy="53" rx=".29" ry=".56"/><circle class="h" cx="46.25" cy="47.53" r=".44"/><circle class="h" cx="53.45" cy="43.14" r=".76"/><ellipse class="h" cx="52.35" cy="36.27" rx="1.86" ry="1.32"/><circle class="h" cx="59.91" cy="33.63" r="1.32"/><ellipse class="h" cx="65.85" cy="34.29" rx=".22" ry=".66"/><ellipse class="h" cx="80.6" cy="50.03" rx=".5" ry="1.1"/><ellipse class="h" cx="73.91" cy="57.21" rx="1.24" ry=".99"/><path class="h" d="M84.05,47.77c0,.13-.11,.24-.24,.24s-.24-.11-.24-.24,.11-.6,.24-.6,.24,.46,.24,.6Z"/><ellipse class="h" cx="84.43" cy="38.97" rx="1.35" ry=".94"/><ellipse class="h" cx="81.7" cy="29.61" rx="1.21" ry=".55"/><ellipse class="h" cx="82.5" cy="26.2" rx="2.39" ry=".99"/><circle class="h" cx="57.84" cy="25.56" r=".63"/><ellipse class="h" cx="62.08" cy="67.79" rx=".74" ry="1.56"/><ellipse class="h" cx="53.52" cy="70.54" rx=".69" ry="1.54"/><path class="h" d="M50.05,72.54c0-.74-.26,.39-.58,.39s-.58-.17-.58-.39,.26-.39,.58-.39,.58,.17,.58,.39Z"/><ellipse class="h" cx="41.64" cy="75.52" rx="1.2" ry=".85"/><circle class="h" cx="35.7" cy="74.13" r=".78"/><path class="h" d="M32,77.55c0-.38-.14,1.05-.3,1.05s-.3-.47-.3-1.05,.14-1.05,.3-1.05,.3,.47,.3,1.05Z"/><ellipse class="h" cx="25.86" cy="76.51" rx=".74" ry=".58"/><path class="h" d="M35.3,78.08c0,.29-.15,.17-.33,.17s-.33,.12-.33-.17,.15-.52,.33-.52,.33,.23,.33,.52Z"/><ellipse class="h" cx="42.12" cy="71.66" rx="1.27" ry=".52"/><ellipse class="h" cx="70.17" cy="64.58" rx="1.07" ry=".59"/><ellipse class="h" cx="80.11" cy="56.09" rx=".39" ry="1.71"/><path class="h" d="M90.73,43.89c0,.76-.43,1.73-.96,1.73s-.96-.62-.96-1.38,.43-1.38,.96-1.38,.96,.26,.96,1.02Z"/><ellipse class="h" cx="92.19" cy="36.24" rx=".69" ry=".36"/></g><path class="d" d="M64.85,26.87s.05,.41,1.45,0,2.04-.5,1.25,.18-2.86,.81-2.69-.18Z"/><ellipse class="d" cx="66.36" cy="25.62" rx=".5" ry=".57"/></g></g></g></svg>