<?xml version="1.0" encoding="UTF-8"?><svg xmlns="http://www.w3.org/2000/svg" viewBox="0 0 118.9 117.46"><defs><style>.d,.e{fill:#fff;}.f{opacity:.28;}.e,.g,.h,.i,.j,.k{stroke:#000;stroke-miterlimit:10;}.e,.h{stroke-width:.25px;}.g{fill:#4f4f4f;}.h{fill:#090a09;}.i{fill:#ef3ca2;}.j{stroke-width:9px;}.l{opacity:.16;}.m{fill:#ea2840;}.n{opacity:.37;}.k{fill:#519548;}</style></defs><g id="a"/><g id="b"><g id="c"><g><polygon class="j" points="106.93 92.48 73.49 84.79 48.19 107.98 45.17 73.79 15.3 56.9 46.88 43.46 53.71 9.83 76.25 35.71 110.35 31.82 92.69 61.25 106.93 92.48"/><g><path class="i" d="M70.92,37.99s6.61-8.42,7.1-7.6,3.72,8.32,3.72,8.32c0,0,6.52-6.5,7.68-5.84s0,11.33,0,11.33c0,0,6.78-.63,9.91-.63,1.65,0-5.78,13.24-5.78,13.24l-22.62-18.83Z"/><g><polygon class="g" points="32.64 102.34 42.84 90.16 70.17 51.91 78.76 46.91 93 52.96 78.03 72.12 68.55 80.61 44.42 98.81 34.79 101.74 32.64 102.34"/><path class="e" d="M34.35,100.03s-.91,.19,.75-2.75,1.39,1.37,1.39,1.37l-2.13,1.37Z"/><path class="e" d="M38.32,98.4s-.91,.19,.75-2.75,1.39,1.37,1.39,1.37l-2.13,1.37Z"/><path class="e" d="M41.89,95.82s-.91,.19,.75-2.75,1.39,1.37,1.39,1.37l-2.13,1.37Z"/><path class="e" d="M45.3,93.59s-.91,.19,.75-2.75,1.39,1.37,1.39,1.37l-2.13,1.37Z"/><path class="e" d="M48.73,91.7s-.91,.19,.75-2.75,1.39,1.37,1.39,1.37l-2.13,1.37Z"/><path class="m" d="M71.44,65.37s-17.67,14.04-17.23,14.81,11.01-.7,11.01-.7"/><path class="n" d="M68.26,54.67c2.04,.38-4.84,27.24-8.93,28.76-2.28,.85,11.27-7.5,11.27-7.5l8.42-13.06,4.79-13.27-8.2-1.05-9.25,9.8,1.9-3.69Z"/><path class="k" d="M49.2,45.68c-.88-.22-26.86,22.02-29.94,22.9s-10.13,1.76-13.65,3.08S.19,76.67,.54,78.71s3.96,3.96,5.06,4.4,10.62,.39,12.55,0l11.01-2.2s10.79-5.06,12.55-5.94,17.17-8.81,17.17-8.81l9.25-3.95,8.59-7.71-11.5,19.53-6.63,7.82-8.54,9.1-13.98,8.32s-11.31,3.92-9.03,5.94,7.87,0,7.87,0l15.58-5.42,34.4-28.2,7.98-8.93,1.24-18.92s-4.43-2.55-7.49-4.67-.39-1-2.64-2.2c-2.26-1.2-15.41-2.2-15.41-2.2,0,0-4.84-1.1-6.17,0s-11.23,5.5-11.23,5.5c0,0-1.72,5.14-3.08,6.16"/><path d="M61.31,44.29s.87-6.65,8.22-6.96c5.99-.25,1.25,4.77-.7,6.64-.46,.44-1.07,.66-1.7,.63l-5.82-.31Z"/></g><polygon class="l" points="77.8 53.04 60.51 73.84 70.17 67.93 78.76 51.91 58.34 66 67.78 61.93 77.8 53.04"/></g><ellipse class="h" cx="51.05" cy="53.29" rx=".16" ry=".33"/><g class="f"><path class="h" d="M25.12,73.84c0-.54-.65,.76-1.46,.76s-1.46-.34-1.46-.76,.65-.76,1.46-.76,1.46,.34,1.46,.76Z"/><circle class="h" cx="28.87" cy="71.06" r="1.83"/><circle class="h" cx="35.57" cy="68.2" r=".27"/><ellipse class="h" cx="40.84" cy="64.04" rx="1.28" ry=".92"/><ellipse class="h" cx="36.95" cy="61.19" rx=".88" ry=".47"/><ellipse class="h" cx="39.27" cy="69.03" rx=".29" ry=".56"/><circle class="h" cx="46.25" cy="63.56" r=".44"/><circle class="h" cx="53.45" cy="59.17" r=".76"/><ellipse class="h" cx="52.35" cy="52.3" rx="1.86" ry="1.32"/><circle class="h" cx="59.91" cy="49.66" r="1.32"/><ellipse class="h" cx="65.85" cy="50.32" rx=".22" ry=".66"/><ellipse class="h" cx="80.6" cy="66.06" rx=".5" ry="1.1"/><ellipse class="h" cx="73.91" cy="73.24" rx="1.24" ry=".99"/><path class="h" d="M84.05,63.8c0,.13-.11,.24-.24,.24s-.24-.11-.24-.24,.11-.6,.24-.6,.24,.46,.24,.6Z"/><ellipse class="h" cx="84.43" cy="55" rx="1.35" ry=".94"/><ellipse class="h" cx="81.7" cy="45.64" rx="1.21" ry=".55"/><ellipse class="h" cx="82.5" cy="42.23" rx="2.39" ry=".99"/><circle class="h" cx="57.84" cy="41.59" r=".63"/><ellipse class="h" cx="62.08" cy="83.82" rx=".74" ry="1.56"/><ellipse class="h" cx="53.52" cy="86.56" rx=".69" ry="1.54"/><path class="h" d="M50.05,88.57c0-.74-.26,.39-.58,.39s-.58-.17-.58-.39,.26-.39,.58-.39,.58,.17,.58,.39Z"/><ellipse class="h" cx="70.17" cy="80.61" rx="1.07" ry=".59"/><ellipse class="h" cx="80.11" cy="72.12" rx=".39" ry="1.71"/><path class="h" d="M90.73,59.92c0,.76-.43,1.73-.96,1.73s-.96-.62-.96-1.38,.43-1.38,.96-1.38,.96,.26,.96,1.02Z"/><path class="h" d="M89.77,45.09c0,.2,2.8,7.54,2.42,7.54s-.69-.16-.69-.36,.31-.36,.69-.36-2.42-7.02-2.42-6.83Z"/></g><path class="d" d="M64.84,42.9s.03,.41,.73,0,1.03-.5,.63,.18-1.45,.81-1.36-.18Z"/><ellipse class="d" cx="66.36" cy="41.65" rx=".5" ry=".57"/></g></g></g></svg>